<svg width="19" height="19" viewBox="0 0 19 19" fill="none" xmlns="http://www.w3.org/2000/svg">
<g clip-path="url(#clip0_590_2843)">
<path d="M7.81251 18.4995C7.63475 18.5004 7.46094 18.4471 7.31431 18.3465C7.16769 18.246 7.05523 18.1032 6.99197 17.937L5.59134 14.2948C5.56298 14.2214 5.51958 14.1548 5.46394 14.0992C5.4083 14.0435 5.34165 14.0001 5.26826 13.9718L1.62501 12.5701C1.45906 12.5064 1.31631 12.3939 1.21563 12.2474C1.11494 12.1009 1.06104 11.9273 1.06104 11.7495C1.06104 11.5718 1.11494 11.3982 1.21563 11.2517C1.31631 11.1052 1.45906 10.9927 1.62501 10.929L5.2672 9.52835C5.3406 9.49999 5.40725 9.45659 5.46289 9.40095C5.51853 9.34531 5.56192 9.27866 5.59029 9.20527L6.99197 5.56203C7.05566 5.39607 7.16818 5.25333 7.31468 5.15264C7.46117 5.05195 7.63475 4.99805 7.81251 4.99805C7.99028 4.99805 8.16386 5.05195 8.31035 5.15264C8.45685 5.25333 8.56937 5.39607 8.63306 5.56203L10.0337 9.20421C10.0621 9.27761 10.1054 9.34426 10.1611 9.3999C10.2167 9.45554 10.2834 9.49893 10.3568 9.5273L13.9779 10.9205C14.1506 10.9846 14.2994 11.1002 14.404 11.2519C14.5086 11.4035 14.564 11.5836 14.5625 11.7678C14.5598 11.9425 14.5048 12.1123 14.4045 12.2553C14.3042 12.3984 14.1633 12.508 14 12.5701L10.3578 13.9707C10.2844 13.9991 10.2178 14.0425 10.1621 14.0981C10.1065 14.1537 10.0631 14.2204 10.0347 14.2938L8.63306 17.937C8.5698 18.1032 8.45734 18.246 8.31072 18.3465C8.16409 18.4471 7.99028 18.5004 7.81251 18.4995Z" fill="white"/>
<path d="M3.59368 6.6874C3.48946 6.6874 3.38769 6.65582 3.30178 6.59683C3.21586 6.53783 3.14983 6.4542 3.11239 6.35693L2.51966 4.81568C2.50681 4.78198 2.48699 4.75137 2.46148 4.72586C2.43597 4.70035 2.40536 4.68052 2.37165 4.66768L0.830402 4.07494C0.733153 4.03749 0.64953 3.97146 0.59055 3.88555C0.53157 3.79963 0.5 3.69786 0.5 3.59365C0.5 3.48944 0.53157 3.38767 0.59055 3.30176C0.64953 3.21585 0.733153 3.14981 0.830402 3.11236L2.37165 2.51963C2.40533 2.50672 2.43591 2.48688 2.46141 2.46138C2.48691 2.43588 2.50676 2.4053 2.51966 2.37162L3.10712 0.844082C3.14025 0.754154 3.19726 0.674953 3.27203 0.614993C3.34679 0.555034 3.43648 0.516582 3.53146 0.50377C3.64549 0.489908 3.76088 0.51451 3.85934 0.573674C3.9578 0.632839 4.03369 0.72318 4.07497 0.830371L4.66771 2.37162C4.68061 2.4053 4.70046 2.43588 4.72596 2.46138C4.75146 2.48688 4.78204 2.50672 4.81571 2.51963L6.35697 3.11236C6.45421 3.14981 6.53784 3.21585 6.59682 3.30176C6.6558 3.38767 6.68737 3.48944 6.68737 3.59365C6.68737 3.69786 6.6558 3.79963 6.59682 3.88555C6.53784 3.97146 6.45421 4.03749 6.35697 4.07494L4.81571 4.66768C4.78201 4.68052 4.7514 4.70035 4.72589 4.72586C4.70038 4.75137 4.68055 4.78198 4.66771 4.81568L4.07497 6.35693C4.03753 6.4542 3.97151 6.53783 3.88559 6.59683C3.79967 6.65582 3.6979 6.6874 3.59368 6.6874Z" fill="white"/>
<path d="M14.5625 9.50021C14.4488 9.50017 14.3378 9.46569 14.2441 9.4013C14.1504 9.33691 14.0784 9.24563 14.0377 9.13951L13.2347 7.05228C13.2206 7.0155 13.1989 6.9821 13.171 6.95424C13.1431 6.92638 13.1097 6.90469 13.073 6.89056L10.9857 6.08759C10.8797 6.04673 10.7885 5.97471 10.7242 5.88102C10.6599 5.78732 10.6255 5.67635 10.6255 5.56271C10.6255 5.44907 10.6599 5.33809 10.7242 5.2444C10.7885 5.15071 10.8797 5.07869 10.9857 5.03783L13.073 4.23486C13.1097 4.22073 13.1431 4.19904 13.171 4.17118C13.1989 4.14332 13.2206 4.10992 13.2347 4.07314L14.0317 2.00068C14.0681 1.90267 14.1303 1.81636 14.2119 1.75093C14.2934 1.6855 14.3911 1.64339 14.4947 1.62908C14.6191 1.61401 14.745 1.64094 14.8524 1.70559C14.9598 1.77024 15.0425 1.8689 15.0874 1.98591L15.8904 4.07314C15.9045 4.10992 15.9262 4.14332 15.9541 4.17118C15.9819 4.19904 16.0153 4.22073 16.0521 4.23486L18.1393 5.03783C18.2454 5.07869 18.3366 5.15071 18.4009 5.2444C18.4652 5.33809 18.4996 5.44907 18.4996 5.56271C18.4996 5.67635 18.4652 5.78732 18.4009 5.88102C18.3366 5.97471 18.2454 6.04673 18.1393 6.08759L16.0521 6.89056C16.0153 6.90469 15.9819 6.92638 15.9541 6.95424C15.9262 6.9821 15.9045 7.0155 15.8904 7.05228L15.0874 9.13951C15.0466 9.24563 14.9746 9.33691 14.8809 9.4013C14.7872 9.46569 14.6762 9.50017 14.5625 9.50021Z" fill="white"/>
</g>
<defs>
<clipPath id="clip0_590_2843">
<rect width="18" height="18" fill="white" transform="translate(0.5 0.5)"/>
</clipPath>
</defs>
</svg>
