<svg width="18" height="19" viewBox="0 0 18 19" fill="none" xmlns="http://www.w3.org/2000/svg">
<g clip-path="url(#clip0_1869_4525)">
<path d="M7.313 18.4995C7.13524 18.5004 6.96143 18.4471 6.8148 18.3465C6.66818 18.246 6.55572 18.1032 6.49246 17.937L5.09183 14.2948C5.06346 14.2214 5.02007 14.1548 4.96443 14.0992C4.90879 14.0435 4.84214 14.0001 4.76875 13.9718L1.1255 12.5701C0.959545 12.5064 0.816802 12.3939 0.716114 12.2474C0.615425 12.1009 0.561523 11.9273 0.561523 11.7495C0.561523 11.5718 0.615425 11.3982 0.716114 11.2517C0.816802 11.1052 0.959545 10.9927 1.1255 10.929L4.76769 9.52835C4.84108 9.49999 4.90774 9.45659 4.96338 9.40095C5.01901 9.34531 5.06241 9.27866 5.09078 9.20527L6.49246 5.56203C6.55615 5.39607 6.66867 5.25333 6.81516 5.15264C6.96166 5.05195 7.13524 4.99805 7.313 4.99805C7.49076 4.99805 7.66435 5.05195 7.81084 5.15264C7.95733 5.25333 8.06986 5.39607 8.13355 5.56203L9.53417 9.20421C9.56254 9.27761 9.60594 9.34426 9.66158 9.3999C9.71721 9.45554 9.78387 9.49893 9.85726 9.5273L13.4784 10.9205C13.6511 10.9846 13.7999 11.1002 13.9045 11.2519C14.0091 11.4035 14.0644 11.5836 14.063 11.7678C14.0603 11.9425 14.0053 12.1123 13.905 12.2553C13.8047 12.3984 13.6638 12.508 13.5005 12.5701L9.85832 13.9707C9.78492 13.9991 9.71827 14.0425 9.66263 14.0981C9.60699 14.1537 9.5636 14.2204 9.53523 14.2938L8.13355 17.937C8.07029 18.1032 7.95783 18.246 7.81121 18.3465C7.66458 18.4471 7.49077 18.5004 7.313 18.4995V18.4995Z" fill="#4C6FFF"/>
<path d="M3.09368 6.6874C2.98946 6.6874 2.88769 6.65582 2.80178 6.59683C2.71586 6.53783 2.64983 6.4542 2.61239 6.35693L2.01966 4.81568C2.00681 4.78198 1.98699 4.75136 1.96148 4.72586C1.93597 4.70035 1.90536 4.68052 1.87165 4.66768L0.330402 4.07494C0.233153 4.03749 0.14953 3.97146 0.0905495 3.88555C0.0315696 3.79963 0 3.69786 0 3.59365C0 3.48944 0.0315696 3.38767 0.0905495 3.30176C0.14953 3.21585 0.233153 3.14981 0.330402 3.11236L1.87165 2.51963C1.90533 2.50672 1.93591 2.48688 1.96141 2.46138C1.98691 2.43588 2.00676 2.4053 2.01966 2.37162L2.60712 0.844082C2.64025 0.754154 2.69726 0.674953 2.77203 0.614993C2.84679 0.555034 2.93648 0.516582 3.03146 0.50377C3.14549 0.489908 3.26088 0.51451 3.35934 0.573674C3.4578 0.632839 3.53369 0.72318 3.57497 0.830372L4.16771 2.37162C4.18061 2.4053 4.20046 2.43588 4.22596 2.46138C4.25146 2.48688 4.28204 2.50672 4.31572 2.51963L5.85696 3.11236C5.95421 3.14981 6.03784 3.21585 6.09682 3.30176C6.1558 3.38767 6.18737 3.48944 6.18737 3.59365C6.18737 3.69786 6.1558 3.79963 6.09682 3.88555C6.03784 3.97146 5.95421 4.03749 5.85696 4.07494L4.31572 4.66768C4.28201 4.68052 4.2514 4.70035 4.22589 4.72586C4.20038 4.75136 4.18055 4.78198 4.16771 4.81568L3.57497 6.35693C3.53753 6.4542 3.47151 6.53783 3.38559 6.59683C3.29967 6.65582 3.1979 6.6874 3.09368 6.6874V6.6874Z" fill="#4C6FFF"/>
<path d="M14.062 9.50021C13.9484 9.50017 13.8373 9.46569 13.7436 9.4013C13.6499 9.33691 13.578 9.24563 13.5372 9.13951L12.7342 7.05228C12.7201 7.0155 12.6984 6.9821 12.6705 6.95424C12.6427 6.92638 12.6093 6.90469 12.5725 6.89056L10.4853 6.08759C10.3792 6.04673 10.288 5.97471 10.2237 5.88102C10.1594 5.78732 10.125 5.67635 10.125 5.56271C10.125 5.44907 10.1594 5.33809 10.2237 5.2444C10.288 5.15071 10.3792 5.07869 10.4853 5.03783L12.5725 4.23486C12.6093 4.22073 12.6427 4.19904 12.6705 4.17118C12.6984 4.14332 12.7201 4.10992 12.7342 4.07314L13.5312 2.00068C13.5676 1.90267 13.6298 1.81636 13.7114 1.75093C13.7929 1.6855 13.8906 1.64339 13.9942 1.62908C14.1186 1.61401 14.2445 1.64094 14.3519 1.70559C14.4593 1.77024 14.542 1.8689 14.5869 1.98591L15.3899 4.07314C15.404 4.10992 15.4257 4.14332 15.4536 4.17118C15.4814 4.19904 15.5148 4.22073 15.5516 4.23486L17.6388 5.03783C17.7449 5.07869 17.8361 5.15071 17.9004 5.2444C17.9647 5.33809 17.9991 5.44907 17.9991 5.56271C17.9991 5.67635 17.9647 5.78732 17.9004 5.88102C17.8361 5.97471 17.7449 6.04673 17.6388 6.08759L15.5516 6.89056C15.5148 6.90469 15.4814 6.92638 15.4536 6.95424C15.4257 6.9821 15.404 7.0155 15.3899 7.05228L14.5869 9.13951C14.5461 9.24563 14.4742 9.33691 14.3805 9.4013C14.2868 9.46569 14.1757 9.50017 14.062 9.50021V9.50021Z" fill="#4C6FFF"/>
</g>
<defs>
<clipPath id="clip0_1869_4525">
<rect width="18" height="18" fill="white" transform="translate(0 0.5)"/>
</clipPath>
</defs>
</svg>
