<svg width="20" height="21" viewBox="0 0 20 21" fill="none" xmlns="http://www.w3.org/2000/svg">
<path d="M13.6374 5.84473C12.0624 5.84473 11.3968 6.59629 10.2999 6.59629C9.1753 6.59629 8.31749 5.8502 6.95264 5.8502C5.61671 5.8502 4.1921 6.66582 3.28741 8.05527C2.0171 10.0146 2.23272 13.7049 4.29014 16.8486C5.02608 17.974 6.00889 19.2361 7.29796 19.2498H7.32139C8.44171 19.2498 8.77452 18.5162 10.3163 18.5076H10.3398C11.8585 18.5076 12.1632 19.2455 13.2788 19.2455H13.3023C14.5913 19.2318 15.6269 17.8334 16.3628 16.7123C16.8925 15.9061 17.0894 15.5014 17.4956 14.5893C14.5194 13.4596 14.0413 9.24043 16.9847 7.62285C16.0862 6.49785 14.8237 5.84629 13.6335 5.84629L13.6374 5.84473Z" fill="white"/>
<path d="M13.2909 1.75C12.3534 1.81367 11.2597 2.41055 10.619 3.18984C10.0378 3.89609 9.55965 4.94375 9.74715 5.95977H9.82215C10.8206 5.95977 11.8425 5.35859 12.4393 4.58828C13.0143 3.85508 13.4503 2.81602 13.2909 1.75Z" fill="#4E5D78"/>
</svg>
