<svg width="18" height="19" viewBox="0 0 18 19" fill="none" xmlns="http://www.w3.org/2000/svg">
<path d="M8.25 2H6.75C3 2 1.5 3.5 1.5 7.25V11.75C1.5 15.5 3 17 6.75 17H11.25C15 17 16.5 15.5 16.5 11.75V10.25" stroke="#4C6FFF" stroke-linecap="round" stroke-linejoin="round"/>
<path d="M12.0304 2.76495L6.1204 8.67495C5.8954 8.89995 5.6704 9.34245 5.6254 9.66495L5.3029 11.9224C5.1829 12.7399 5.7604 13.3099 6.5779 13.1974L8.8354 12.8749C9.1504 12.8299 9.5929 12.6049 9.8254 12.3799L15.7354 6.46995C16.7554 5.44995 17.2354 4.26495 15.7354 2.76495C14.2354 1.26495 13.0504 1.74495 12.0304 2.76495Z" stroke="#4C6FFF" stroke-miterlimit="10" stroke-linecap="round" stroke-linejoin="round"/>
<path d="M11.1826 3.6123C11.6851 5.4048 13.0876 6.8073 14.8876 7.3173" stroke="#333333" stroke-width="1.5" stroke-miterlimit="10" stroke-linecap="round" stroke-linejoin="round"/>
</svg>
