<svg width="20" height="20" viewBox="0 0 20 20" fill="none" xmlns="http://www.w3.org/2000/svg">
<path d="M6.25 10C6.25 9.83424 6.31585 9.67527 6.43306 9.55806C6.55027 9.44085 6.70924 9.375 6.875 9.375H12.5V5.3125C12.5 4.0625 11.1801 3.125 10 3.125H4.0625C3.48253 3.12562 2.92649 3.35629 2.51639 3.76639C2.10629 4.17649 1.87562 4.73253 1.875 5.3125V14.6875C1.87562 15.2675 2.10629 15.8235 2.51639 16.2336C2.92649 16.6437 3.48253 16.8744 4.0625 16.875H10.3125C10.8925 16.8744 11.4485 16.6437 11.8586 16.2336C12.2687 15.8235 12.4994 15.2675 12.5 14.6875V10.625H6.875C6.70924 10.625 6.55027 10.5592 6.43306 10.4419C6.31585 10.3247 6.25 10.1658 6.25 10Z" fill="#4C6FFF"/>
<path d="M17.9398 9.55665L14.8148 6.43165C14.6967 6.31939 14.5393 6.25773 14.3764 6.25982C14.2134 6.2619 14.0577 6.32757 13.9424 6.44282C13.8272 6.55807 13.7615 6.71379 13.7594 6.87676C13.7573 7.03974 13.819 7.19708 13.9313 7.31525L15.9891 9.37345H12.498V10.6235H15.9891L13.9313 12.6817C13.8708 12.7391 13.8224 12.8081 13.789 12.8845C13.7556 12.961 13.7379 13.0433 13.7368 13.1268C13.7357 13.2102 13.7514 13.293 13.7828 13.3702C13.8142 13.4475 13.8608 13.5177 13.9198 13.5767C13.9788 13.6357 14.049 13.6823 14.1263 13.7137C14.2035 13.7451 14.2863 13.7608 14.3697 13.7597C14.4532 13.7586 14.5355 13.7409 14.612 13.7075C14.6884 13.6741 14.7574 13.6257 14.8148 13.5652L17.9398 10.4402C18.057 10.323 18.1228 10.1641 18.1228 9.99845C18.1228 9.83276 18.057 9.67385 17.9398 9.55665V9.55665Z" fill="#4C6FFF"/>
</svg>
