<svg width="30" height="30" viewBox="0 0 30 30" fill="none" xmlns="http://www.w3.org/2000/svg">
<path d="M26.9539 14.0625H18.7507C18.0048 14.0625 17.2894 13.7662 16.762 13.2387C16.2345 12.7113 15.9382 11.9959 15.9382 11.25V3.04687C15.9382 2.98471 15.9135 2.9251 15.8696 2.88115C15.8256 2.83719 15.766 2.8125 15.7039 2.8125H12.5837C12.4743 2.60985 12.3468 2.41747 12.2029 2.2377C11.5273 1.39922 10.5236 0.9375 9.37573 0.9375C7.16792 0.9375 5.62573 2.67246 5.62573 5.15625V13.5937C5.62573 15.0586 6.81753 15.9375 7.96948 15.9375C8.2782 15.9409 8.58449 15.8826 8.87037 15.766C9.15625 15.6494 9.41597 15.4769 9.63428 15.2585C9.85259 15.0402 10.0251 14.7805 10.1417 14.4946C10.2583 14.2088 10.3166 13.9025 10.3132 13.5937V4.6875C10.3132 4.43886 10.2145 4.2004 10.0386 4.02459C9.86283 3.84877 9.62437 3.75 9.37573 3.75C9.12709 3.75 8.88863 3.84877 8.71282 4.02459C8.537 4.2004 8.43823 4.43886 8.43823 4.6875V13.5937C8.44027 13.6559 8.42954 13.7177 8.4067 13.7755C8.38387 13.8333 8.34941 13.8858 8.30547 13.9297C8.26153 13.9737 8.20904 14.0081 8.15125 14.031C8.09346 14.0538 8.03159 14.0645 7.96948 14.0625C7.83882 14.0625 7.50073 13.9781 7.50073 13.5937V5.15625C7.50073 4.02305 7.99351 2.8125 9.37573 2.8125C11.1154 2.8125 11.2507 4.5791 11.2507 5.11992V13.2498C11.2507 14.2723 10.9302 15.1969 10.3478 15.8549C9.75659 16.5234 8.93452 16.875 7.96948 16.875C7.00444 16.875 6.18237 16.5234 5.59116 15.8549C5.00874 15.1969 4.68823 14.2723 4.68823 13.2498V8.4375C4.68823 8.18886 4.58946 7.9504 4.41364 7.77459C4.23783 7.59877 3.99937 7.5 3.75073 7.5C3.50209 7.5 3.26364 7.59877 3.08782 7.77459C2.912 7.9504 2.81323 8.18886 2.81323 8.4375V13.2498C2.81323 16.268 4.75796 18.5016 7.50073 18.7301V25.3125C7.50073 26.3071 7.89582 27.2609 8.59908 27.9641C9.30234 28.6674 10.2562 29.0625 11.2507 29.0625H23.4382C24.4328 29.0625 25.3866 28.6674 26.0899 27.9641C26.7931 27.2609 27.1882 26.3071 27.1882 25.3125V14.2969C27.1882 14.2347 27.1635 14.1751 27.1196 14.1311C27.0756 14.0872 27.016 14.0625 26.9539 14.0625Z" fill="white"/>
<path d="M18.7507 12.1856H26.3568C26.3799 12.1855 26.4025 12.1786 26.4216 12.1657C26.4408 12.1529 26.4558 12.1346 26.4646 12.1132C26.4734 12.0919 26.4757 12.0684 26.4713 12.0457C26.4668 12.0231 26.4557 12.0022 26.4394 11.9858L18.013 3.55947C17.9967 3.54318 17.9758 3.5321 17.9531 3.52762C17.9305 3.52313 17.907 3.52545 17.8856 3.53428C17.8643 3.54311 17.846 3.55806 17.8331 3.57724C17.8203 3.59642 17.8133 3.61898 17.8132 3.64209V11.2481C17.8132 11.4968 17.912 11.7352 18.0878 11.9111C18.2636 12.0869 18.5021 12.1856 18.7507 12.1856Z" fill="white"/>
</svg>
