<svg width="40" height="40" viewBox="0 0 40 40" fill="none" xmlns="http://www.w3.org/2000/svg">
<path d="M19.999 2.50195C10.335 2.50195 2.49902 10.541 2.49902 20.4473C2.49902 28.377 7.51465 35.0957 14.4678 37.4707C14.5653 37.4919 14.6648 37.5024 14.7646 37.502C15.4131 37.502 15.6631 37.0254 15.6631 36.6113C15.6631 36.1816 15.6475 35.0566 15.6396 33.5566C15.0608 33.6923 14.4686 33.7631 13.874 33.7676C10.5068 33.7676 9.74121 31.1504 9.74121 31.1504C8.94434 29.0801 7.7959 28.5254 7.7959 28.5254C6.27246 27.4551 7.78809 27.4238 7.90527 27.4238H7.91309C9.6709 27.5801 10.5928 29.2832 10.5928 29.2832C11.4678 30.8145 12.6396 31.2441 13.6865 31.2441C14.3787 31.2303 15.0602 31.0706 15.6865 30.7754C15.8428 29.6191 16.2959 28.8301 16.7959 28.377C12.9131 27.9238 8.82715 26.3848 8.82715 19.5098C8.82715 17.5488 9.50684 15.9473 10.624 14.6973C10.4443 14.2441 9.84277 12.416 10.7959 9.94727C10.9237 9.91667 11.0551 9.90353 11.1865 9.9082C11.8193 9.9082 13.249 10.1504 15.6084 11.791C18.4752 10.9889 21.5072 10.9889 24.374 11.791C26.7334 10.1504 28.1631 9.9082 28.7959 9.9082C28.9273 9.90353 29.0587 9.91667 29.1865 9.94727C30.1396 12.416 29.5381 14.2441 29.3584 14.6973C30.4756 15.9551 31.1553 17.5566 31.1553 19.5098C31.1553 26.4004 27.0615 27.916 23.1631 28.3613C23.7881 28.916 24.3506 30.0098 24.3506 31.6816C24.3506 34.0801 24.3271 36.0176 24.3271 36.6035C24.3271 37.0254 24.5693 37.502 25.2178 37.502C25.3227 37.5024 25.4275 37.4919 25.5303 37.4707C32.4912 35.0957 37.499 28.3691 37.499 20.4473C37.499 10.541 29.6631 2.50195 19.999 2.50195Z" fill="white"/>
</svg>
