<svg width="20" height="21" viewBox="0 0 20 21" fill="none" xmlns="http://www.w3.org/2000/svg">
<path d="M18.4833 9.14961L18.395 8.775H10.2528V12.2211H15.1177C14.6126 14.6195 12.2688 15.882 10.3544 15.882C8.96143 15.882 7.49307 15.2961 6.52119 14.3543C6.00843 13.8495 5.60028 13.2484 5.32009 12.5857C5.03991 11.9229 4.89321 11.2113 4.88838 10.4918C4.88838 9.04023 5.54072 7.58828 6.48994 6.6332C7.43916 5.67812 8.87275 5.14375 10.2981 5.14375C11.9306 5.14375 13.1005 6.01055 13.538 6.40586L15.9868 3.96992C15.2685 3.33867 13.295 1.74805 10.2192 1.74805C7.84619 1.74805 5.5708 2.65703 3.90752 4.31484C2.26611 5.94727 1.4165 8.30781 1.4165 10.498C1.4165 12.6883 2.22041 14.9309 3.81104 16.5762C5.51064 18.3309 7.91768 19.248 10.3962 19.248C12.6513 19.248 14.7888 18.3645 16.3122 16.7613C17.8099 15.1832 18.5845 12.9996 18.5845 10.7105C18.5845 9.74687 18.4876 9.17461 18.4833 9.14961Z" fill="white"/>
</svg>
