<svg width="430" height="403" viewBox="0 0 430 403" fill="none" xmlns="http://www.w3.org/2000/svg">
<rect width="429.513" height="403" fill="url(#paint0_linear_69_301)"/>
<path fill-rule="evenodd" clip-rule="evenodd" d="M222.767 93H208.713H147.768C146.239 93 145 94.2391 145 95.7676V165.527C145 167.841 147.672 169.133 149.486 167.696L197.956 129.297C198.999 128.471 200.482 128.503 201.487 129.374L233.974 157.513C235.325 158.683 235.229 160.809 233.777 161.852L178.727 201.404C177.206 202.496 177.187 204.753 178.689 205.871L204.292 224.94C206.118 226.3 208.713 224.997 208.713 222.72V222.16C208.713 220.631 209.952 219.392 211.481 219.392H222.767C256.403 219.392 283.67 191.098 283.67 156.196C283.67 121.294 256.403 93 222.767 93ZM208.713 278.867C208.713 278.044 208.346 277.263 207.712 276.737L145.928 225.49C145.729 225.325 145.445 225.316 145.236 225.466C145.088 225.572 145 225.743 145 225.926V307.692C145 309.22 146.239 310.459 147.768 310.459H205.945C207.474 310.459 208.713 309.22 208.713 307.692V278.867Z" fill="white"/>
<defs>
<linearGradient id="paint0_linear_69_301" x1="429.891" y1="-58.9886" x2="261.414" y2="463.894" gradientUnits="userSpaceOnUse">
<stop stop-color="#AE66FF"/>
<stop offset="1" stop-color="#4C6FFF"/>
</linearGradient>
</defs>
</svg>
