<svg width="100" height="28" viewBox="0 0 100 28" fill="none" xmlns="http://www.w3.org/2000/svg">
    <rect width="28" height="28" rx="4.54354" fill="url(#paint0_linear_720_2218)" />
    <path fill-rule="evenodd" clip-rule="evenodd"
        d="M15.0397 4.99707H13.8271H8.56863C8.43675 4.99707 8.32983 5.10398 8.32983 5.23586V11.2551C8.32983 11.4548 8.56038 11.5662 8.71691 11.4422L12.899 8.12911C12.9889 8.05784 13.1169 8.06065 13.2036 8.13578L16.0066 10.5636C16.1232 10.6646 16.1149 10.8481 15.9896 10.9381L11.2398 14.3506C11.1086 14.4449 11.1069 14.6396 11.2365 14.7361L13.4457 16.3814C13.6032 16.4987 13.8271 16.3863 13.8271 16.1899V16.1412C13.8271 16.0093 13.934 15.9024 14.0659 15.9024H15.0397C17.9418 15.9024 20.2945 13.4611 20.2945 10.4497C20.2945 7.43831 17.9418 4.99707 15.0397 4.99707ZM13.8271 21.0343C13.8271 20.9632 13.7955 20.8959 13.7408 20.8505L8.40986 16.4288C8.39276 16.4146 8.36823 16.4138 8.35018 16.4267C8.33741 16.4359 8.32983 16.4507 8.32983 16.4664V23.521C8.32983 23.6529 8.43675 23.7598 8.56863 23.7598H13.5883C13.7202 23.7598 13.8271 23.6529 13.8271 23.521V21.0343Z"
        fill="white" />
    <path
        d="M40.3532 16.7476H36.4421V14.9341H40.2986C41.1726 14.9341 41.8063 14.7192 42.1996 14.2895C42.6001 13.8525 42.8004 13.248 42.8004 12.476V11.5255C42.8004 10.7316 42.6038 10.1235 42.2105 9.70102C41.8172 9.27859 41.1872 9.06737 40.3205 9.06737H36.4312V7.26475H40.3642C41.9665 7.26475 43.1355 7.6362 43.8711 8.3791C44.614 9.11471 44.9854 10.1453 44.9854 11.4709V12.5306C44.9854 13.8562 44.614 14.8904 43.8711 15.6333C43.1282 16.3762 41.9556 16.7476 40.3532 16.7476ZM37.1631 21.2269H35V7.26475H37.1522V15.4694L37.1631 16.4527V21.2269Z"
        fill="white" />
    <path
        d="M50.7876 21.5C49.2144 21.5 48.02 21.0812 47.2042 20.2436C46.3885 19.406 45.9806 18.2007 45.9806 16.6275V15.1089C45.9806 13.543 46.3885 12.3449 47.2042 11.5146C48.02 10.677 49.2144 10.2582 50.7876 10.2582C52.3608 10.2582 53.5516 10.677 54.3601 11.5146C55.1758 12.3449 55.5837 13.543 55.5837 15.1089V16.6275C55.5837 18.2007 55.1758 19.406 54.3601 20.2436C53.5516 21.0812 52.3608 21.5 50.7876 21.5ZM50.7876 19.7629C51.6543 19.7629 52.3135 19.5044 52.765 18.9873C53.2166 18.4701 53.4424 17.7272 53.4424 16.7586V14.9778C53.4424 14.0164 53.2166 13.2808 52.765 12.7709C52.3135 12.2538 51.6543 11.9953 50.7876 11.9953C49.9209 11.9953 49.2618 12.2538 48.8102 12.7709C48.3586 13.2808 48.1329 14.0164 48.1329 14.9778V16.7586C48.1329 17.7272 48.3586 18.4701 48.8102 18.9873C49.2618 19.5044 49.9209 19.7629 50.7876 19.7629Z"
        fill="white" />
    <path
        d="M59.2739 14.7702L58.8151 13.0987H59.3395C59.5653 12.2538 59.944 11.591 60.4757 11.1103C61.0074 10.6224 61.7321 10.3784 62.6498 10.3784C62.8683 10.3784 63.0613 10.3966 63.2288 10.433C63.4036 10.4621 63.5602 10.4985 63.6986 10.5422L63.8297 12.6289C63.6549 12.5706 63.4582 12.5269 63.2397 12.4978C63.0212 12.4614 62.7845 12.4432 62.5296 12.4432C61.7503 12.4432 61.0766 12.6435 60.5085 13.0441C59.9404 13.4446 59.5289 14.02 59.2739 14.7702ZM59.3613 21.2269H57.22V10.5422H59.3067L59.2084 13.6559L59.3613 13.8088V21.2269Z"
        fill="white" />
    <path
        d="M69.1831 21.4454C68.3309 21.4454 67.6463 21.3179 67.1292 21.063C66.6121 20.8008 66.237 20.4111 66.0039 19.894C65.7708 19.3696 65.6543 18.7178 65.6543 17.9385V11.4053H67.7737V17.6872C67.7737 18.3427 67.9231 18.8234 68.2217 19.1293C68.5203 19.4352 69.0228 19.5881 69.7293 19.5881C70.1518 19.5881 70.556 19.5444 70.942 19.457C71.328 19.3696 71.6849 19.2458 72.0126 19.0856L71.8269 20.8991C71.4773 21.0739 71.0731 21.2087 70.6142 21.3033C70.1554 21.398 69.6783 21.4454 69.1831 21.4454ZM71.7286 12.3776H63.9828V10.6733H71.9143L71.7286 12.3776ZM67.7191 10.8591H65.6762L65.6652 7.92025L67.8065 7.66897L67.7191 10.8591Z"
        fill="white" />
    <path
        d="M75.3668 21.2269H73.2255V10.5422H75.3668V21.2269ZM74.2961 8.96904C73.8737 8.96904 73.5569 8.86344 73.3457 8.65222C73.1417 8.43372 73.0398 8.13511 73.0398 7.75637V7.71267C73.0398 7.33394 73.1417 7.03897 73.3457 6.82775C73.5569 6.60925 73.8737 6.5 74.2961 6.5C74.7186 6.5 75.0317 6.60925 75.2357 6.82775C75.4469 7.03897 75.5525 7.33394 75.5525 7.71267V7.75637C75.5525 8.14239 75.4469 8.441 75.2357 8.65222C75.0317 8.86344 74.7186 8.96904 74.2961 8.96904Z"
        fill="white" />
    <path
        d="M78.8657 21.2269H76.5277L79.9473 15.3602V15.961L76.6042 10.5422H78.9422L81.4221 14.7374H81.586L84.0441 10.5422H86.3821L83.039 15.961V15.3602L86.4585 21.2269H84.1206L81.586 16.7476H81.4221L78.8657 21.2269Z"
        fill="white" />
    <path
        d="M91.7397 21.4781C90.0354 21.4781 88.7572 21.0739 87.9051 20.2655C87.0602 19.4497 86.6378 18.2771 86.6378 16.7476V14.9996C86.6378 13.492 87.0311 12.3267 87.8177 11.5036C88.6116 10.6733 89.766 10.2582 91.2809 10.2582C92.3078 10.2582 93.1636 10.4476 93.8483 10.8263C94.5329 11.1977 95.0464 11.7258 95.3887 12.4104C95.731 13.095 95.9022 13.9071 95.9022 14.8467V15.2509C95.9022 15.4985 95.8912 15.7498 95.8694 16.0047C95.8475 16.2596 95.8184 16.5036 95.782 16.7367H93.8155C93.8301 16.358 93.8373 16.0011 93.8373 15.6661C93.8446 15.331 93.8483 15.0251 93.8483 14.7484C93.8483 14.1584 93.7536 13.6595 93.5642 13.2516C93.3748 12.8438 93.0908 12.5342 92.7121 12.323C92.3333 12.1045 91.8563 11.9953 91.2809 11.9953C90.4287 11.9953 89.7951 12.2393 89.3799 12.7272C88.9648 13.2079 88.7572 13.8962 88.7572 14.7921V15.7972L88.7681 16.0484V16.9989C88.7681 17.3995 88.8264 17.7637 88.9429 18.0914C89.0668 18.4192 89.2598 18.7032 89.522 18.9436C89.7915 19.1766 90.1374 19.3587 90.5598 19.4898C90.9823 19.6136 91.4957 19.6755 92.1003 19.6755C92.7849 19.6755 93.4258 19.5881 94.0231 19.4133C94.6276 19.2385 95.1957 19.0055 95.7274 18.7141L95.5307 20.5386C95.05 20.8226 94.4892 21.0521 93.8483 21.2269C93.2146 21.3944 92.5118 21.4781 91.7397 21.4781ZM95.345 16.7367H87.774V15.1307H95.345V16.7367Z"
        fill="white" />
    <path d="M99.6354 21.2269H97.4941V6.7622H99.6354V21.2269Z" fill="white" />
    <defs>
        <linearGradient id="paint0_linear_720_2218" x1="28" y1="0" x2="0" y2="28" gradientUnits="userSpaceOnUse">
            <stop stop-color="#BB65FF" />
            <stop offset="1" stop-color="#4C6FFF" />
        </linearGradient>
    </defs>
</svg>