<svg width="34" height="20" viewBox="0 0 34 20" fill="none" xmlns="http://www.w3.org/2000/svg">
<path d="M11.6667 10C11.6667 11.1046 10.7713 12 9.66675 12C8.56218 12 7.66675 11.1046 7.66675 10C7.66675 8.89543 8.56218 8 9.66675 8C10.7713 8 11.6667 8.89543 11.6667 10Z" fill="#C2C0C4"/>
<path d="M19.0001 10C19.0001 11.1046 18.1047 12 17.0001 12C15.8955 12 15.0001 11.1046 15.0001 10C15.0001 8.89543 15.8955 8 17.0001 8C18.1047 8 19.0001 8.89543 19.0001 10Z" fill="#C2C0C4"/>
<path d="M26.3334 10C26.3334 11.1046 25.438 12 24.3334 12C23.2288 12 22.3334 11.1046 22.3334 10C22.3334 8.89543 23.2288 8 24.3334 8C25.438 8 26.3334 8.89543 26.3334 10Z" fill="#C2C0C4"/>
</svg>
