<svg width="20" height="20" viewBox="0 0 20 20" fill="none" xmlns="http://www.w3.org/2000/svg">
<path d="M17.8395 16.4586L14.1641 12.7832C15.0489 11.6052 15.5266 10.1714 15.525 8.69805C15.525 4.93477 12.4633 1.87305 8.7 1.87305C4.93672 1.87305 1.875 4.93477 1.875 8.69805C1.875 12.4613 4.93672 15.523 8.7 15.523C10.1733 15.5247 11.6072 15.047 12.7852 14.1621L16.4605 17.8375C16.6466 18.0038 16.8893 18.0926 17.1387 18.0856C17.3881 18.0786 17.6255 17.9764 17.8019 17.8C17.9784 17.6235 18.0806 17.3862 18.0876 17.1367C18.0945 16.8873 18.0058 16.6446 17.8395 16.4586V16.4586ZM3.825 8.69805C3.825 7.73386 4.11091 6.79133 4.64659 5.98964C5.18226 5.18795 5.94363 4.56311 6.83442 4.19413C7.72521 3.82516 8.70541 3.72862 9.65107 3.91672C10.5967 4.10482 11.4654 4.56912 12.1471 5.2509C12.8289 5.93268 13.2932 6.80132 13.4813 7.74698C13.6694 8.69264 13.5729 9.67284 13.2039 10.5636C12.8349 11.4544 12.2101 12.2158 11.4084 12.7515C10.6067 13.2871 9.66418 13.573 8.7 13.573C7.40755 13.5715 6.16847 13.0574 5.25457 12.1435C4.34066 11.2296 3.82655 9.9905 3.825 8.69805V8.69805Z" fill="#C2C0C4"/>
</svg>
