<svg width="20" height="21" viewBox="0 0 20 21" fill="none" xmlns="http://www.w3.org/2000/svg">
<path d="M13.1247 13.6254H1.24968C1.14058 13.6256 1.03331 13.5973 0.938547 13.5432C0.843783 13.4892 0.764825 13.4112 0.709524 13.3172C0.654223 13.2231 0.624506 13.1162 0.623327 13.0071C0.622149 12.898 0.649551 12.7905 0.702808 12.6953L6.64031 2.07031C6.69454 1.97319 6.7737 1.8923 6.86963 1.83599C6.96556 1.77969 7.07478 1.75 7.18601 1.75C7.29725 1.75 7.40647 1.77969 7.5024 1.83599C7.59833 1.8923 7.67749 1.97319 7.73172 2.07031L13.6692 12.6953C13.7224 12.7904 13.7498 12.8977 13.7487 13.0066C13.7476 13.1155 13.7181 13.2222 13.6631 13.3162C13.6081 13.4102 13.5294 13.4881 13.435 13.5424C13.3406 13.5966 13.2336 13.6252 13.1247 13.6254Z" fill="#C2C0C4"/>
<path d="M13.1246 6.75C12.6972 6.74991 12.2709 6.79336 11.8523 6.87969L14.7613 12.0855C14.9207 12.3709 15.0027 12.693 14.9993 13.0198C14.9958 13.3467 14.907 13.667 14.7416 13.9489C14.5761 14.2308 14.3399 14.4646 14.0563 14.627C13.7726 14.7895 13.4514 14.875 13.1246 14.875H7.16089C7.50741 15.9769 8.15252 16.9612 9.02459 17.7186C9.89665 18.4761 10.9616 18.977 12.1011 19.1659C13.2406 19.3548 14.4102 19.2241 15.48 18.7885C16.5498 18.3529 17.478 17.6294 18.1615 16.6982C18.8449 15.767 19.257 14.6646 19.3519 13.5135C19.4468 12.3623 19.2208 11.2073 18.699 10.1768C18.1773 9.14626 17.3801 8.28049 16.3961 7.67558C15.4121 7.07067 14.2796 6.75029 13.1246 6.75Z" fill="#C2C0C4"/>
</svg>
