<svg width="20" height="21" viewBox="0 0 20 21" fill="none" xmlns="http://www.w3.org/2000/svg">
<path d="M2.29697 17.6535C2.17393 17.6111 2.06719 17.5314 1.99163 17.4254C1.91607 17.3195 1.87547 17.1926 1.87549 17.0624C1.87549 14.207 2.44893 11.9234 3.58057 10.2746C4.94775 8.28237 7.10439 7.20971 10.0005 7.07651V3.93745C10.0005 3.81506 10.0364 3.69538 10.1039 3.59323C10.1713 3.49109 10.2672 3.41099 10.3797 3.36286C10.4922 3.31473 10.6164 3.3007 10.7368 3.3225C10.8572 3.3443 10.9686 3.40097 11.0571 3.48549L17.9321 10.048C17.9932 10.1063 18.0419 10.1765 18.0751 10.2542C18.1083 10.3318 18.1254 10.4155 18.1254 10.4999C18.1254 10.5844 18.1083 10.668 18.0751 10.7457C18.0419 10.8234 17.9932 10.8935 17.9321 10.9519L11.0571 17.5144C10.9686 17.5989 10.8572 17.6556 10.7368 17.6774C10.6164 17.6992 10.4922 17.6852 10.3797 17.637C10.2672 17.5889 10.1713 17.5088 10.1039 17.4067C10.0364 17.3045 10.0005 17.1848 10.0005 17.0624V13.9464C8.24268 13.9996 6.91455 14.2843 5.85713 14.8308C4.71455 15.4214 3.88604 16.3039 2.99307 17.448C2.91296 17.5506 2.80283 17.6256 2.67804 17.6626C2.55325 17.6995 2.42003 17.6966 2.29697 17.6542V17.6535Z" fill="white"/>
</svg>
