<svg width="20" height="21" viewBox="0 0 20 21" fill="none" xmlns="http://www.w3.org/2000/svg">
<path d="M13.75 1.12695H6.25C5.58718 1.12768 4.95172 1.3913 4.48303 1.85999C4.01435 2.32867 3.75072 2.96413 3.75 3.62695V13.627C3.75072 14.2898 4.01435 14.9252 4.48303 15.3939C4.95172 15.8626 5.58718 16.1262 6.25 16.127H13.75C14.4128 16.1262 15.0483 15.8626 15.517 15.3939C15.9857 14.9252 16.2493 14.2898 16.25 13.627V3.62695C16.2493 2.96413 15.9857 2.32867 15.517 1.85999C15.0483 1.3913 14.4128 1.12768 13.75 1.12695V1.12695ZM8.125 3.00195H11.875C12.0408 3.00195 12.1997 3.0678 12.3169 3.18501C12.4342 3.30222 12.5 3.46119 12.5 3.62695C12.5 3.79271 12.4342 3.95168 12.3169 4.06889C12.1997 4.1861 12.0408 4.25195 11.875 4.25195H8.125C7.95924 4.25195 7.80027 4.1861 7.68306 4.06889C7.56585 3.95168 7.5 3.79271 7.5 3.62695C7.5 3.46119 7.56585 3.30222 7.68306 3.18501C7.80027 3.0678 7.95924 3.00195 8.125 3.00195V3.00195ZM6.875 14.252C6.62777 14.252 6.3861 14.1786 6.18054 14.0413C5.97498 13.9039 5.81476 13.7087 5.72015 13.4803C5.62554 13.2519 5.60079 13.0006 5.64902 12.7581C5.69725 12.5156 5.8163 12.2929 5.99112 12.1181C6.16593 11.9433 6.38866 11.8242 6.63114 11.776C6.87361 11.7277 7.12495 11.7525 7.35335 11.8471C7.58176 11.9417 7.77699 12.1019 7.91434 12.3075C8.05169 12.5131 8.125 12.7547 8.125 13.002C8.125 13.3335 7.9933 13.6514 7.75888 13.8858C7.52446 14.1203 7.20652 14.252 6.875 14.252ZM13.125 14.252C12.8778 14.252 12.6361 14.1786 12.4305 14.0413C12.225 13.9039 12.0648 13.7087 11.9702 13.4803C11.8755 13.2519 11.8508 13.0006 11.899 12.7581C11.9472 12.5156 12.0663 12.2929 12.2411 12.1181C12.4159 11.9433 12.6387 11.8242 12.8811 11.776C13.1236 11.7277 13.3749 11.7525 13.6034 11.8471C13.8318 11.9417 14.027 12.1019 14.1643 12.3075C14.3017 12.5131 14.375 12.7547 14.375 13.002C14.375 13.3335 14.2433 13.6514 14.0089 13.8858C13.7745 14.1203 13.4565 14.252 13.125 14.252ZM15 8.00195C15 8.16771 14.9342 8.32668 14.8169 8.44389C14.6997 8.5611 14.5408 8.62695 14.375 8.62695H5.625C5.45924 8.62695 5.30027 8.5611 5.18306 8.44389C5.06585 8.32668 5 8.16771 5 8.00195V6.75195C5 6.58619 5.06585 6.42722 5.18306 6.31001C5.30027 6.1928 5.45924 6.12695 5.625 6.12695H14.375C14.5408 6.12695 14.6997 6.1928 14.8169 6.31001C14.9342 6.42722 15 6.58619 15 6.75195V8.00195Z" fill="#C2C0C4"/>
<path d="M13.5674 16.9365C13.4492 16.8243 13.2919 16.7626 13.1289 16.7647C12.9659 16.7668 12.8102 16.8325 12.6949 16.9477C12.5797 17.063 12.514 17.2187 12.5119 17.3816C12.5099 17.5446 12.5715 17.702 12.6838 17.8201L12.8666 18.0033H7.13456L7.31737 17.8201C7.42963 17.702 7.49129 17.5446 7.48921 17.3816C7.48712 17.2187 7.42145 17.063 7.3062 16.9477C7.19095 16.8325 7.03524 16.7668 6.87226 16.7647C6.70928 16.7626 6.55194 16.8243 6.43378 16.9365L4.55878 18.8115C4.4983 18.869 4.44993 18.938 4.41653 19.0144C4.38313 19.0909 4.36538 19.1732 4.36431 19.2566C4.36324 19.3401 4.37888 19.4228 4.41031 19.5001C4.44174 19.5774 4.48833 19.6476 4.54732 19.7066C4.60631 19.7656 4.67651 19.8122 4.75378 19.8436C4.83106 19.875 4.91384 19.8907 4.99726 19.8896C5.08068 19.8885 5.16303 19.8708 5.23948 19.8374C5.31592 19.804 5.38491 19.7556 5.44237 19.6951L5.88456 19.2533H14.1166L14.5588 19.6951C14.6769 19.8074 14.8343 19.8691 14.9973 19.867C15.1602 19.8649 15.3159 19.7992 15.4312 19.684C15.5464 19.5687 15.6121 19.413 15.6142 19.25C15.6163 19.087 15.5546 18.9297 15.4424 18.8115L13.5674 16.9365Z" fill="#C2C0C4"/>
</svg>
