<svg width="19" height="19" viewBox="0 0 19 19" fill="none" xmlns="http://www.w3.org/2000/svg">
<g clip-path="url(#clip0_1688_2440)">
<path d="M17.1521 7.88043C16.6599 7.51551 16.0552 7.24762 15.4168 7.10313C15.312 7.07954 15.216 7.02663 15.1401 6.95056C15.0642 6.87449 15.0116 6.7784 14.9882 6.67352C14.714 5.45184 14.1237 4.40418 13.2561 3.61035C12.2475 2.68609 10.9136 2.17773 9.5 2.17773C8.25723 2.17773 7.10938 2.56727 6.1823 3.30449C5.554 3.80493 5.04826 4.44222 4.70363 5.16777C4.66627 5.24716 4.61085 5.31671 4.54181 5.37085C4.47277 5.425 4.39202 5.46224 4.30602 5.47961C3.36559 5.66945 2.51656 6.0727 1.86828 6.64398C0.973203 7.435 0.5 8.48652 0.5 9.68711C0.5 10.9007 1.00941 12.0074 1.93402 12.8076C2.81715 13.5701 4.00613 13.9902 5.28125 13.9902H8.9375V8.59832L7.64762 9.8882C7.59377 9.94205 7.52954 9.9844 7.45884 10.0127C7.38813 10.041 7.31242 10.0546 7.23629 10.0528C7.16016 10.0509 7.08519 10.0337 7.01594 10.002C6.94669 9.97031 6.88458 9.9249 6.8334 9.86852C6.62949 9.64457 6.64918 9.29547 6.86328 9.08137L9.10238 6.84262C9.20786 6.73721 9.35088 6.678 9.5 6.678C9.64912 6.678 9.79214 6.73721 9.89762 6.84262L12.1367 9.08066C12.3575 9.3018 12.3702 9.66426 12.1504 9.88609C12.0983 9.93874 12.0363 9.98058 11.9679 10.0092C11.8996 10.0378 11.8263 10.0526 11.7522 10.0528C11.6781 10.053 11.6047 10.0386 11.5362 10.0103C11.4677 9.98208 11.4055 9.94057 11.3531 9.8882L10.0625 8.59832V13.9902H14.4219C15.5237 13.9902 16.5281 13.6809 17.2502 13.1194C18.0679 12.4831 18.5 11.5725 18.5 10.4887C18.5 9.43609 18.0338 8.53363 17.1521 7.88043Z" fill="#181818"/>
<path d="M8.93707 16.255C8.93707 16.4042 8.99634 16.5473 9.10183 16.6527C9.20731 16.7582 9.35039 16.8175 9.49957 16.8175C9.64876 16.8175 9.79183 16.7582 9.89732 16.6527C10.0028 16.5473 10.0621 16.4042 10.0621 16.255V13.9902H8.93707V16.255Z" fill="#181818"/>
</g>
<defs>
<clipPath id="clip0_1688_2440">
<rect width="18" height="18" fill="white" transform="translate(0.5 0.5)"/>
</clipPath>
</defs>
</svg>
