<svg width="18" height="19" viewBox="0 0 18 19" fill="none" xmlns="http://www.w3.org/2000/svg">
<path d="M16.6521 7.88043C16.1599 7.51551 15.5552 7.24762 14.9168 7.10313C14.812 7.07954 14.716 7.02663 14.6401 6.95056C14.5642 6.87449 14.5116 6.7784 14.4882 6.67352C14.214 5.45184 13.6237 4.40418 12.7561 3.61035C11.7475 2.68609 10.4136 2.17773 9 2.17773C7.75723 2.17773 6.60938 2.56727 5.6823 3.30449C5.054 3.80493 4.54826 4.44222 4.20363 5.16777C4.16627 5.24716 4.11085 5.31671 4.04181 5.37085C3.97277 5.425 3.89202 5.46224 3.80602 5.47961C2.86559 5.66945 2.01656 6.0727 1.36828 6.64398C0.473203 7.435 0 8.48652 0 9.68711C0 10.9007 0.509414 12.0074 1.43402 12.8076C2.31715 13.5701 3.50613 13.9902 4.78125 13.9902H8.4375V8.59832L7.14762 9.8882C7.09377 9.94205 7.02954 9.9844 6.95884 10.0127C6.88813 10.041 6.81242 10.0546 6.73629 10.0528C6.66016 10.0509 6.58519 10.0337 6.51594 10.002C6.44669 9.97031 6.38458 9.9249 6.3334 9.86852C6.12949 9.64457 6.14918 9.29547 6.36328 9.08137L8.60238 6.84262C8.70786 6.73721 8.85088 6.678 9 6.678C9.14912 6.678 9.29214 6.73721 9.39762 6.84262L11.6367 9.08066C11.8575 9.3018 11.8702 9.66426 11.6504 9.88609C11.5983 9.93874 11.5363 9.98058 11.4679 10.0092C11.3996 10.0378 11.3263 10.0526 11.2522 10.0528C11.1781 10.053 11.1047 10.0386 11.0362 10.0103C10.9677 9.98208 10.9055 9.94057 10.8531 9.8882L9.5625 8.59832V13.9902H13.9219C15.0237 13.9902 16.0281 13.6809 16.7502 13.1194C17.5679 12.4831 18 11.5725 18 10.4887C18 9.43609 17.5338 8.53363 16.6521 7.88043Z" fill="white"/>
<path d="M8.43701 16.255C8.43701 16.4042 8.49628 16.5473 8.60176 16.6527C8.70725 16.7582 8.85033 16.8175 8.99951 16.8175C9.1487 16.8175 9.29177 16.7582 9.39726 16.6527C9.50275 16.5473 9.56201 16.4042 9.56201 16.255V13.9902H8.43701V16.255Z" fill="white"/>
</svg>
